<svg width="363" height="151" viewBox="0 0 363 151" fill="none" xmlns="http://www.w3.org/2000/svg">
<path d="M150.711 73.9714C141.333 70.0968 133.278 66.2218 124.347 63.3475C120.058 61.9728 114.455 61.9117 108.853 62.2257C85.8738 63.4194 63.5588 78.7453 56.503 99.8828C52.4337 112.015 53.7828 122.833 53.1933 134.089C53.0369 137.215 54.2884 139.716 55.1488 143.155C28.0045 127.904 23.211 82.3195 49.8754 36.6646C91.5287 23.3976 143.005 41.9569 150.711 73.9714Z" fill="#744FC6"/>
<path d="M76.424 135L96.392 90.2H106.632L126.664 135H115.784L99.4 95.448H103.496L87.048 135H76.424ZM86.408 125.4L89.16 117.528H112.2L115.016 125.4H86.408ZM141.88 135.512C138.936 135.512 136.098 135.171 133.368 134.488C130.68 133.763 128.546 132.867 126.968 131.8L130.296 124.632C131.874 125.613 133.73 126.424 135.864 127.064C138.04 127.661 140.173 127.96 142.264 127.96C144.568 127.96 146.189 127.683 147.128 127.128C148.109 126.573 148.6 125.805 148.6 124.824C148.6 124.013 148.216 123.416 147.448 123.032C146.722 122.605 145.741 122.285 144.503 122.072C143.266 121.859 141.901 121.645 140.408 121.432C138.957 121.219 137.485 120.941 135.992 120.6C134.498 120.216 133.133 119.661 131.896 118.936C130.658 118.211 129.656 117.229 128.888 115.992C128.162 114.755 127.799 113.155 127.799 111.192C127.799 109.016 128.418 107.096 129.656 105.432C130.936 103.768 132.77 102.467 135.16 101.528C137.549 100.547 140.408 100.056 143.736 100.056C146.082 100.056 148.472 100.312 150.904 100.824C153.336 101.336 155.362 102.083 156.984 103.064L153.656 110.168C151.992 109.187 150.306 108.525 148.6 108.184C146.936 107.8 145.314 107.608 143.736 107.608C141.517 107.608 139.896 107.907 138.872 108.504C137.848 109.101 137.336 109.869 137.336 110.808C137.336 111.661 137.698 112.301 138.424 112.728C139.192 113.155 140.194 113.496 141.432 113.752C142.669 114.008 144.013 114.243 145.464 114.456C146.957 114.627 148.45 114.904 149.944 115.288C151.437 115.672 152.781 116.227 153.976 116.952C155.213 117.635 156.216 118.595 156.984 119.832C157.752 121.027 158.136 122.605 158.136 124.568C158.136 126.701 157.496 128.6 156.216 130.264C154.936 131.885 153.08 133.165 150.648 134.104C148.258 135.043 145.336 135.512 141.88 135.512ZM175.88 135.512C172.936 135.512 170.098 135.171 167.368 134.488C164.68 133.763 162.546 132.867 160.968 131.8L164.296 124.632C165.874 125.613 167.73 126.424 169.864 127.064C172.04 127.661 174.173 127.96 176.264 127.96C178.568 127.96 180.189 127.683 181.128 127.128C182.109 126.573 182.6 125.805 182.6 124.824C182.6 124.013 182.216 123.416 181.448 123.032C180.722 122.605 179.741 122.285 178.503 122.072C177.266 121.859 175.901 121.645 174.408 121.432C172.957 121.219 171.485 120.941 169.992 120.6C168.498 120.216 167.133 119.661 165.896 118.936C164.658 118.211 163.656 117.229 162.888 115.992C162.162 114.755 161.799 113.155 161.799 111.192C161.799 109.016 162.418 107.096 163.656 105.432C164.936 103.768 166.77 102.467 169.16 101.528C171.549 100.547 174.408 100.056 177.736 100.056C180.082 100.056 182.472 100.312 184.904 100.824C187.336 101.336 189.362 102.083 190.984 103.064L187.656 110.168C185.992 109.187 184.306 108.525 182.6 108.184C180.936 107.8 179.314 107.608 177.736 107.608C175.517 107.608 173.896 107.907 172.872 108.504C171.848 109.101 171.336 109.869 171.336 110.808C171.336 111.661 171.698 112.301 172.424 112.728C173.192 113.155 174.194 113.496 175.432 113.752C176.669 114.008 178.013 114.243 179.464 114.456C180.957 114.627 182.45 114.904 183.944 115.288C185.437 115.672 186.781 116.227 187.976 116.952C189.213 117.635 190.216 118.595 190.984 119.832C191.752 121.027 192.136 122.605 192.136 124.568C192.136 126.701 191.496 128.6 190.216 130.264C188.936 131.885 187.08 133.165 184.648 134.104C182.258 135.043 179.336 135.512 175.88 135.512ZM198.296 135V100.568H208.28V135H198.296ZM203.288 95.768C201.453 95.768 199.96 95.2347 198.808 94.168C197.656 93.1013 197.08 91.7787 197.08 90.2C197.08 88.6213 197.656 87.2987 198.808 86.232C199.96 85.1653 201.453 84.632 203.288 84.632C205.122 84.632 206.616 85.144 207.768 86.168C208.92 87.1493 209.496 88.4293 209.496 90.008C209.496 91.672 208.92 93.0587 207.768 94.168C206.658 95.2347 205.165 95.768 203.288 95.768ZM233.738 147.928C230.495 147.928 227.359 147.523 224.33 146.712C221.343 145.944 218.847 144.771 216.842 143.192L220.81 136.024C222.26 137.219 224.095 138.157 226.314 138.84C228.575 139.565 230.794 139.928 232.97 139.928C236.511 139.928 239.071 139.139 240.65 137.56C242.271 135.981 243.082 133.635 243.082 130.52V125.336L243.722 116.696L243.594 107.992V100.568H253.066V129.24C253.066 135.64 251.402 140.355 248.074 143.384C244.746 146.413 239.967 147.928 233.738 147.928ZM232.202 133.336C229.002 133.336 226.1 132.653 223.498 131.288C220.938 129.88 218.868 127.939 217.29 125.464C215.754 122.947 214.986 120.024 214.986 116.696C214.986 113.325 215.754 110.403 217.29 107.928C218.868 105.411 220.938 103.469 223.498 102.104C226.1 100.739 229.002 100.056 232.202 100.056C235.103 100.056 237.663 100.653 239.882 101.848C242.1 103 243.828 104.813 245.066 107.288C246.303 109.72 246.922 112.856 246.922 116.696C246.922 120.493 246.303 123.629 245.066 126.104C243.828 128.536 242.1 130.349 239.882 131.544C237.663 132.739 235.103 133.336 232.202 133.336ZM234.186 125.144C235.935 125.144 237.492 124.803 238.858 124.12C240.223 123.395 241.29 122.392 242.058 121.112C242.826 119.832 243.21 118.36 243.21 116.696C243.21 114.989 242.826 113.517 242.058 112.28C241.29 111 240.223 110.019 238.858 109.336C237.492 108.611 235.935 108.248 234.186 108.248C232.436 108.248 230.879 108.611 229.514 109.336C228.148 110.019 227.06 111 226.25 112.28C225.482 113.517 225.098 114.989 225.098 116.696C225.098 118.36 225.482 119.832 226.25 121.112C227.06 122.392 228.148 123.395 229.514 124.12C230.879 124.803 232.436 125.144 234.186 125.144ZM283.286 100.056C286.017 100.056 288.449 100.611 290.582 101.72C292.758 102.787 294.465 104.451 295.702 106.712C296.939 108.931 297.558 111.789 297.558 115.288V135H287.574V116.824C287.574 114.051 286.955 112.003 285.718 110.68C284.523 109.357 282.817 108.696 280.598 108.696C279.019 108.696 277.59 109.037 276.31 109.72C275.073 110.36 274.091 111.363 273.366 112.728C272.683 114.093 272.342 115.843 272.342 117.976V135H262.358V100.568H271.894V110.104L270.102 107.224C271.339 104.92 273.11 103.149 275.414 101.912C277.718 100.675 280.342 100.056 283.286 100.056ZM307.312 135V90.2H317.68V135H307.312ZM337.592 135V98.648H323.256V90.2H362.296V98.648H347.96V135H337.592Z" fill="black"/>
</svg>
